<mxfile host="Electron" modified="2024-06-16T06:42:42.780Z" agent="Mozilla/5.0 (Macintosh; Intel Mac OS X 10_15_7) AppleWebKit/537.36 (KHTML, like Gecko) draw.io/24.5.3 Chrome/124.0.6367.207 Electron/30.0.6 Safari/537.36" etag="QroG9NKlg3FJ_f6o0Cue" version="24.5.3" type="device">
  <diagram id="C5RBs43oDa-KdzZeNtuy" name="Page-1">
    <mxGraphModel dx="792" dy="934" grid="1" gridSize="10" guides="1" tooltips="1" connect="1" arrows="1" fold="1" page="1" pageScale="1" pageWidth="827" pageHeight="1169" math="0" shadow="0">
      <root>
        <mxCell id="WIyWlLk6GJQsqaUBKTNV-0" />
        <mxCell id="WIyWlLk6GJQsqaUBKTNV-1" parent="WIyWlLk6GJQsqaUBKTNV-0" />
        <mxCell id="bJyNlXTk-tN8i6MqbVay-1" style="edgeStyle=orthogonalEdgeStyle;rounded=0;orthogonalLoop=1;jettySize=auto;html=1;exitX=0.5;exitY=1;exitDx=0;exitDy=0;entryX=0.5;entryY=0;entryDx=0;entryDy=0;" edge="1" parent="WIyWlLk6GJQsqaUBKTNV-1" source="WIyWlLk6GJQsqaUBKTNV-3" target="WIyWlLk6GJQsqaUBKTNV-11">
          <mxGeometry relative="1" as="geometry" />
        </mxCell>
        <mxCell id="WIyWlLk6GJQsqaUBKTNV-3" value="Initialize GDT" style="rounded=1;whiteSpace=wrap;html=1;fontSize=12;glass=0;strokeWidth=1;shadow=0;" parent="WIyWlLk6GJQsqaUBKTNV-1" vertex="1">
          <mxGeometry x="120" y="40" width="120" height="40" as="geometry" />
        </mxCell>
        <mxCell id="bJyNlXTk-tN8i6MqbVay-3" style="edgeStyle=orthogonalEdgeStyle;rounded=0;orthogonalLoop=1;jettySize=auto;html=1;exitX=0.5;exitY=1;exitDx=0;exitDy=0;entryX=0.5;entryY=0;entryDx=0;entryDy=0;" edge="1" parent="WIyWlLk6GJQsqaUBKTNV-1" source="WIyWlLk6GJQsqaUBKTNV-11">
          <mxGeometry relative="1" as="geometry">
            <mxPoint x="180.0000000000001" y="200" as="targetPoint" />
          </mxGeometry>
        </mxCell>
        <mxCell id="WIyWlLk6GJQsqaUBKTNV-11" value="Print loader message&lt;div&gt;(real mode)&lt;/div&gt;" style="rounded=1;whiteSpace=wrap;html=1;fontSize=12;glass=0;strokeWidth=1;shadow=0;" parent="WIyWlLk6GJQsqaUBKTNV-1" vertex="1">
          <mxGeometry x="100" y="120" width="160" height="40" as="geometry" />
        </mxCell>
        <mxCell id="bJyNlXTk-tN8i6MqbVay-8" style="edgeStyle=orthogonalEdgeStyle;rounded=0;orthogonalLoop=1;jettySize=auto;html=1;entryX=0;entryY=0.5;entryDx=0;entryDy=0;" edge="1" parent="WIyWlLk6GJQsqaUBKTNV-1" source="bJyNlXTk-tN8i6MqbVay-6" target="bJyNlXTk-tN8i6MqbVay-7">
          <mxGeometry relative="1" as="geometry" />
        </mxCell>
        <mxCell id="bJyNlXTk-tN8i6MqbVay-10" style="edgeStyle=orthogonalEdgeStyle;rounded=0;orthogonalLoop=1;jettySize=auto;html=1;entryX=0.5;entryY=0;entryDx=0;entryDy=0;" edge="1" parent="WIyWlLk6GJQsqaUBKTNV-1" source="bJyNlXTk-tN8i6MqbVay-6" target="bJyNlXTk-tN8i6MqbVay-9">
          <mxGeometry relative="1" as="geometry" />
        </mxCell>
        <mxCell id="bJyNlXTk-tN8i6MqbVay-6" value="Try to get memory size&lt;div&gt;eax = 0x 0000 e820&lt;/div&gt;" style="rhombus;whiteSpace=wrap;html=1;" vertex="1" parent="WIyWlLk6GJQsqaUBKTNV-1">
          <mxGeometry x="60" y="200" width="240" height="80" as="geometry" />
        </mxCell>
        <mxCell id="bJyNlXTk-tN8i6MqbVay-7" value="Print &quot;fail&quot;&lt;div&gt;jmp $&lt;/div&gt;" style="rounded=1;whiteSpace=wrap;html=1;" vertex="1" parent="WIyWlLk6GJQsqaUBKTNV-1">
          <mxGeometry x="360" y="220" width="120" height="40" as="geometry" />
        </mxCell>
        <mxCell id="bJyNlXTk-tN8i6MqbVay-15" style="edgeStyle=orthogonalEdgeStyle;rounded=0;orthogonalLoop=1;jettySize=auto;html=1;exitX=0.5;exitY=1;exitDx=0;exitDy=0;entryX=0.5;entryY=0;entryDx=0;entryDy=0;" edge="1" parent="WIyWlLk6GJQsqaUBKTNV-1" source="bJyNlXTk-tN8i6MqbVay-9" target="bJyNlXTk-tN8i6MqbVay-13">
          <mxGeometry relative="1" as="geometry" />
        </mxCell>
        <mxCell id="bJyNlXTk-tN8i6MqbVay-9" value="Print &quot;OK&quot;" style="rounded=1;whiteSpace=wrap;html=1;" vertex="1" parent="WIyWlLk6GJQsqaUBKTNV-1">
          <mxGeometry x="120" y="320" width="120" height="40" as="geometry" />
        </mxCell>
        <mxCell id="bJyNlXTk-tN8i6MqbVay-11" value="Fail" style="text;html=1;align=center;verticalAlign=middle;whiteSpace=wrap;rounded=0;" vertex="1" parent="WIyWlLk6GJQsqaUBKTNV-1">
          <mxGeometry x="300" y="210" width="60" height="30" as="geometry" />
        </mxCell>
        <mxCell id="bJyNlXTk-tN8i6MqbVay-12" value="Success" style="text;html=1;align=center;verticalAlign=middle;whiteSpace=wrap;rounded=0;" vertex="1" parent="WIyWlLk6GJQsqaUBKTNV-1">
          <mxGeometry x="190" y="280" width="60" height="30" as="geometry" />
        </mxCell>
        <mxCell id="bJyNlXTk-tN8i6MqbVay-19" style="edgeStyle=orthogonalEdgeStyle;rounded=0;orthogonalLoop=1;jettySize=auto;html=1;exitX=0.5;exitY=1;exitDx=0;exitDy=0;entryX=0.5;entryY=0;entryDx=0;entryDy=0;" edge="1" parent="WIyWlLk6GJQsqaUBKTNV-1" source="bJyNlXTk-tN8i6MqbVay-13" target="bJyNlXTk-tN8i6MqbVay-16">
          <mxGeometry relative="1" as="geometry" />
        </mxCell>
        <mxCell id="bJyNlXTk-tN8i6MqbVay-13" value="Enter protected mode:&lt;div&gt;1. Enable A20 line&lt;/div&gt;&lt;div&gt;2. Load GDT&lt;/div&gt;&lt;div&gt;3. Set cr0 position 0 to 1&lt;/div&gt;&lt;div&gt;4. Refresh pipeline&lt;/div&gt;" style="rounded=1;whiteSpace=wrap;html=1;" vertex="1" parent="WIyWlLk6GJQsqaUBKTNV-1">
          <mxGeometry x="90" y="400" width="180" height="80" as="geometry" />
        </mxCell>
        <mxCell id="bJyNlXTk-tN8i6MqbVay-28" style="edgeStyle=orthogonalEdgeStyle;rounded=0;orthogonalLoop=1;jettySize=auto;html=1;exitX=0.5;exitY=1;exitDx=0;exitDy=0;entryX=0.5;entryY=0;entryDx=0;entryDy=0;" edge="1" parent="WIyWlLk6GJQsqaUBKTNV-1" source="bJyNlXTk-tN8i6MqbVay-16" target="bJyNlXTk-tN8i6MqbVay-27">
          <mxGeometry relative="1" as="geometry">
            <Array as="points">
              <mxPoint x="180" y="580" />
              <mxPoint x="340" y="580" />
              <mxPoint x="340" y="380" />
              <mxPoint x="514" y="380" />
            </Array>
          </mxGeometry>
        </mxCell>
        <mxCell id="bJyNlXTk-tN8i6MqbVay-16" value="Print protected message" style="rounded=1;whiteSpace=wrap;html=1;" vertex="1" parent="WIyWlLk6GJQsqaUBKTNV-1">
          <mxGeometry x="100" y="520" width="160" height="40" as="geometry" />
        </mxCell>
        <mxCell id="bJyNlXTk-tN8i6MqbVay-30" style="edgeStyle=orthogonalEdgeStyle;rounded=0;orthogonalLoop=1;jettySize=auto;html=1;exitX=0.5;exitY=1;exitDx=0;exitDy=0;entryX=0.5;entryY=0;entryDx=0;entryDy=0;" edge="1" parent="WIyWlLk6GJQsqaUBKTNV-1" source="bJyNlXTk-tN8i6MqbVay-27" target="bJyNlXTk-tN8i6MqbVay-29">
          <mxGeometry relative="1" as="geometry" />
        </mxCell>
        <mxCell id="bJyNlXTk-tN8i6MqbVay-27" value="Read one sector (m32)" style="rounded=1;whiteSpace=wrap;html=1;" vertex="1" parent="WIyWlLk6GJQsqaUBKTNV-1">
          <mxGeometry x="434" y="400" width="160" height="40" as="geometry" />
        </mxCell>
        <mxCell id="bJyNlXTk-tN8i6MqbVay-31" style="edgeStyle=orthogonalEdgeStyle;rounded=0;orthogonalLoop=1;jettySize=auto;html=1;exitX=1;exitY=0.5;exitDx=0;exitDy=0;" edge="1" parent="WIyWlLk6GJQsqaUBKTNV-1" source="bJyNlXTk-tN8i6MqbVay-29">
          <mxGeometry relative="1" as="geometry">
            <mxPoint x="594" y="420" as="targetPoint" />
            <Array as="points">
              <mxPoint x="665" y="520" />
              <mxPoint x="665" y="420" />
              <mxPoint x="594" y="420" />
            </Array>
          </mxGeometry>
        </mxCell>
        <mxCell id="bJyNlXTk-tN8i6MqbVay-35" style="edgeStyle=orthogonalEdgeStyle;rounded=0;orthogonalLoop=1;jettySize=auto;html=1;exitX=0.5;exitY=1;exitDx=0;exitDy=0;entryX=0.5;entryY=0;entryDx=0;entryDy=0;" edge="1" parent="WIyWlLk6GJQsqaUBKTNV-1" source="bJyNlXTk-tN8i6MqbVay-29" target="bJyNlXTk-tN8i6MqbVay-34">
          <mxGeometry relative="1" as="geometry" />
        </mxCell>
        <mxCell id="bJyNlXTk-tN8i6MqbVay-29" value="Disk read finished?" style="rhombus;whiteSpace=wrap;html=1;" vertex="1" parent="WIyWlLk6GJQsqaUBKTNV-1">
          <mxGeometry x="414" y="480" width="200" height="80" as="geometry" />
        </mxCell>
        <mxCell id="bJyNlXTk-tN8i6MqbVay-32" value="No" style="text;html=1;align=center;verticalAlign=middle;whiteSpace=wrap;rounded=0;" vertex="1" parent="WIyWlLk6GJQsqaUBKTNV-1">
          <mxGeometry x="604" y="490" width="60" height="30" as="geometry" />
        </mxCell>
        <mxCell id="bJyNlXTk-tN8i6MqbVay-33" value="Yes" style="text;html=1;align=center;verticalAlign=middle;whiteSpace=wrap;rounded=0;" vertex="1" parent="WIyWlLk6GJQsqaUBKTNV-1">
          <mxGeometry x="534" y="560" width="60" height="30" as="geometry" />
        </mxCell>
        <mxCell id="bJyNlXTk-tN8i6MqbVay-39" style="edgeStyle=orthogonalEdgeStyle;rounded=0;orthogonalLoop=1;jettySize=auto;html=1;entryX=0.5;entryY=0;entryDx=0;entryDy=0;" edge="1" parent="WIyWlLk6GJQsqaUBKTNV-1" source="bJyNlXTk-tN8i6MqbVay-34" target="bJyNlXTk-tN8i6MqbVay-38">
          <mxGeometry relative="1" as="geometry" />
        </mxCell>
        <mxCell id="bJyNlXTk-tN8i6MqbVay-34" value="Paging initialization:&lt;div&gt;1. Clear page dir&lt;/div&gt;&lt;div&gt;2. Create PDE&lt;/div&gt;&lt;div&gt;3. Create PTE&lt;/div&gt;" style="rounded=1;whiteSpace=wrap;html=1;" vertex="1" parent="WIyWlLk6GJQsqaUBKTNV-1">
          <mxGeometry x="434" y="600" width="160" height="80" as="geometry" />
        </mxCell>
        <mxCell id="bJyNlXTk-tN8i6MqbVay-42" style="edgeStyle=orthogonalEdgeStyle;rounded=0;orthogonalLoop=1;jettySize=auto;html=1;entryX=0.5;entryY=0;entryDx=0;entryDy=0;" edge="1" parent="WIyWlLk6GJQsqaUBKTNV-1" source="bJyNlXTk-tN8i6MqbVay-36" target="bJyNlXTk-tN8i6MqbVay-41">
          <mxGeometry relative="1" as="geometry" />
        </mxCell>
        <mxCell id="bJyNlXTk-tN8i6MqbVay-36" value="Print paging message" style="rounded=1;whiteSpace=wrap;html=1;" vertex="1" parent="WIyWlLk6GJQsqaUBKTNV-1">
          <mxGeometry x="434" y="840" width="160" height="40" as="geometry" />
        </mxCell>
        <mxCell id="bJyNlXTk-tN8i6MqbVay-40" style="edgeStyle=orthogonalEdgeStyle;rounded=0;orthogonalLoop=1;jettySize=auto;html=1;entryX=0.5;entryY=0;entryDx=0;entryDy=0;" edge="1" parent="WIyWlLk6GJQsqaUBKTNV-1" source="bJyNlXTk-tN8i6MqbVay-38" target="bJyNlXTk-tN8i6MqbVay-36">
          <mxGeometry relative="1" as="geometry" />
        </mxCell>
        <mxCell id="bJyNlXTk-tN8i6MqbVay-38" value="Enable paging:&lt;div&gt;1. Save GDT table&lt;/div&gt;&lt;div&gt;2. GDT describer = Kernel page&lt;/div&gt;&lt;div&gt;3. Fill page directory base register&lt;/div&gt;&lt;div&gt;4. set cr0 position 32 to 1&lt;/div&gt;" style="rounded=1;whiteSpace=wrap;html=1;" vertex="1" parent="WIyWlLk6GJQsqaUBKTNV-1">
          <mxGeometry x="414" y="720" width="200" height="80" as="geometry" />
        </mxCell>
        <mxCell id="bJyNlXTk-tN8i6MqbVay-41" value="Go to Kernel" style="rounded=1;whiteSpace=wrap;html=1;" vertex="1" parent="WIyWlLk6GJQsqaUBKTNV-1">
          <mxGeometry x="434" y="920" width="160" height="40" as="geometry" />
        </mxCell>
      </root>
    </mxGraphModel>
  </diagram>
</mxfile>
